<svg width="146" height="70" viewBox="0 0 146 70" fill="none" xmlns="http://www.w3.org/2000/svg">
<path d="M27.2065 36.1261C27.2065 18.2429 37.2093 3.7468 49.5493 3.7468C50.3945 3.7468 51.225 3.82135 52.0481 3.94906C51.8791 3.68278 51.1956 3.11827 50.9604 2.95851C38.5689 -5.62628 27.0815 6.44142 21.0622 14.1635C20.0186 15.5055 20.1949 17.8913 21.3855 18.9458C24.0902 21.3423 21.437 32.1957 16.7112 28.9365C16.4172 28.7342 15.9615 28.3187 15.6602 28.1164C8.92059 23.4832 -0.494255 34.7946 0.0202172 36.0089C0.725779 37.6705 6.39967 28.0631 20.996 52.763C30.9106 69.5173 40.8767 70.7527 46.9401 69.7409C47.5428 69.645 49.0715 69.0912 49.3875 68.4947C37.1211 68.3669 27.2065 53.9241 27.2065 36.1261Z" fill="white"/>
<path d="M68.1438 23.8242C67.0414 20.3306 65.5126 17.2205 63.587 14.5897C61.5953 11.863 59.2802 9.77541 56.6931 8.38012C55.4069 7.6878 54.084 7.17654 52.7464 6.86766C52.3789 6.78245 52.0041 6.70789 51.6366 6.65464C51.2617 6.60138 50.8869 6.55878 50.512 6.52683C50.1372 6.50552 49.7624 6.49487 49.395 6.49487C49.0275 6.49487 48.66 6.51618 48.2999 6.54813C47.9324 6.58008 47.5723 6.63334 47.2048 6.68659C46.8447 6.75061 46.4772 6.82506 46.117 6.91037C45.757 6.99558 45.3968 7.10209 45.0366 7.21915C44.6766 7.33642 44.3238 7.46412 43.971 7.61324C43.8093 7.67714 43.6549 7.7517 43.4932 7.81561C41.5456 8.68889 39.7082 9.97778 38.0178 11.65C34.5194 15.1116 31.8809 19.9791 30.3963 25.7519C29.4334 29.5011 28.9999 33.3994 29.1175 37.3723C29.2277 41.196 29.8451 44.9134 30.9475 48.4069C32.05 51.9005 33.5787 55.0106 35.5043 57.6414C37.496 60.3681 39.8111 62.4556 42.3982 63.851C44.6986 65.0972 47.1093 65.7256 49.542 65.7256C49.6008 65.7256 49.6523 65.7256 49.7111 65.7256C51.7102 65.7043 53.6872 65.2571 55.6054 64.3942C57.5531 63.5208 59.3905 62.2321 61.0809 60.5598C64.5793 57.0982 67.2178 52.2307 68.7024 46.4579C69.6652 42.7087 70.0988 38.7997 69.9812 34.8374C69.8563 31.0349 69.2389 27.3284 68.1438 23.8242ZM49.5493 8.83811C49.564 8.83811 49.5787 8.83811 49.586 8.83811C47.7119 9.40262 45.8745 10.4251 44.1473 11.895C44.0444 11.9802 43.9416 12.076 43.8387 12.1613C42.7656 12.0121 41.2148 12.1293 39.3481 13.1944C42.3614 10.3825 45.9039 8.83811 49.5493 8.83811ZM31.4987 43.8483C30.3815 38.3736 30.433 32.3451 31.9175 26.5827C32.5202 24.2503 33.3214 22.0986 34.2768 20.1709C34.2915 21.0869 34.4531 22.2478 34.9309 24.2395C33.7108 27.6478 33.0347 31.5355 32.9612 35.6362C32.9244 37.8409 33.0641 39.6516 33.1964 40.8127C32.557 41.9204 31.8662 43.1771 31.4987 43.8483ZM35.2764 41.473C34.5194 38.4695 34.6884 34.9333 35.0706 31.887C35.2102 30.7367 35.4087 29.6078 35.6732 28.4999C35.8128 27.8928 35.9746 27.2858 36.1583 26.7C36.2612 26.3697 36.5185 25.1556 36.7389 25.0065L42.0307 21.5129L49.7183 31.0669L48.4616 41.8458L39.2671 47.6719C39.1128 47.7465 38.4366 46.905 38.2971 46.7666C37.9884 46.447 37.7017 46.1062 37.4151 45.7655C36.8639 45.0943 36.3715 44.3595 35.9745 43.4861C35.6806 42.8364 35.4528 42.1653 35.2764 41.473ZM45.5217 62.7646C44.6618 62.4877 43.8093 62.1255 42.9641 61.6675C40.3623 60.2616 38.0986 58.0994 36.2538 55.4259C37.2386 56.129 38.3117 56.6508 39.2011 57.0236C41.472 60.1444 44.0004 61.8166 45.9774 62.7007C45.801 62.7433 45.654 62.754 45.5217 62.7646ZM54.9953 58.8237C53.5328 60.1231 51.9084 60.9965 50.4018 61.593C49.902 61.5504 49.1156 61.4439 48.1602 61.1669C47.7927 61.0604 47.4031 60.9326 46.9916 60.7622C45.2277 60.0591 42.8024 58.6426 40.6048 55.7987C40.1639 53.7217 40.1198 51.4638 40.1492 49.9938L49.1671 44.2849L50.5782 45.2754L55.2452 48.5453L54.9953 58.8237ZM53.0992 28.6811L51.0266 29.1711L43.3021 19.5852L44.919 14.3448C46.9034 12.6194 53.5622 10.7235 53.5622 10.7235C57.3031 13.5352 59.0156 16.1236 59.6771 17.3484L57.7515 27.5947L53.0992 28.6811ZM65.6596 50.2176C64.028 54.1372 61.779 57.3112 59.1626 59.5586C59.1333 59.516 59.0744 59.4841 58.9935 59.4628C58.3394 59.3137 57.4869 58.9089 56.8401 58.5681L57.0973 48.0448L62.1833 40.376L66.8503 41.1856C67.0634 43.7311 66.1006 48.3111 65.6596 50.2176ZM66.9605 38.5227L62.367 37.7239L59.4197 28.8409L61.3527 18.5626C62.411 18.978 63.7928 19.5319 64.6674 19.8833C66.0712 22.6313 67.1075 25.7521 67.7175 29.0539C67.9013 32.4622 67.3426 36.3818 66.9605 38.5227Z" fill="white"/>
<path d="M93.2285 57.4062C93.2285 57.0742 93.1764 56.7812 93.0723 56.5273C92.9746 56.2669 92.7988 56.0326 92.5449 55.8242C92.2975 55.6159 91.9525 55.4173 91.5098 55.2285C91.0736 55.0397 90.5202 54.8477 89.8496 54.6523C89.1465 54.444 88.5117 54.2129 87.9453 53.959C87.3789 53.6986 86.8939 53.4023 86.4902 53.0703C86.0866 52.7383 85.7773 52.3574 85.5625 51.9277C85.3477 51.498 85.2402 51.0065 85.2402 50.4531C85.2402 49.8997 85.3542 49.3887 85.582 48.9199C85.8099 48.4512 86.1354 48.0443 86.5586 47.6992C86.9883 47.3477 87.4993 47.0742 88.0918 46.8789C88.6842 46.6836 89.3451 46.5859 90.0742 46.5859C91.1419 46.5859 92.0469 46.791 92.7891 47.2012C93.5378 47.6048 94.1074 48.1354 94.498 48.793C94.8887 49.444 95.084 50.1406 95.084 50.8828H93.209C93.209 50.349 93.0951 49.877 92.8672 49.4668C92.6393 49.0501 92.2943 48.7246 91.832 48.4902C91.3698 48.2493 90.7839 48.1289 90.0742 48.1289C89.4036 48.1289 88.8503 48.2298 88.4141 48.4316C87.9779 48.6335 87.6523 48.9069 87.4375 49.252C87.2292 49.597 87.125 49.9909 87.125 50.4336C87.125 50.7331 87.1868 51.0065 87.3105 51.2539C87.4408 51.4948 87.6393 51.7194 87.9062 51.9277C88.1797 52.1361 88.5247 52.3281 88.9414 52.5039C89.3646 52.6797 89.8691 52.849 90.4551 53.0117C91.2624 53.2396 91.959 53.4935 92.5449 53.7734C93.1309 54.0534 93.6126 54.3691 93.9902 54.7207C94.3743 55.0658 94.6576 55.4596 94.8398 55.9023C95.0286 56.3385 95.123 56.8333 95.123 57.3867C95.123 57.9661 95.0059 58.4902 94.7715 58.959C94.5371 59.4277 94.2018 59.8281 93.7656 60.1602C93.3294 60.4922 92.8053 60.7493 92.1934 60.9316C91.5879 61.1074 90.9108 61.1953 90.1621 61.1953C89.5046 61.1953 88.8568 61.1042 88.2188 60.9219C87.5872 60.7396 87.0111 60.4661 86.4902 60.1016C85.9759 59.737 85.5625 59.2878 85.25 58.7539C84.944 58.2135 84.791 57.5885 84.791 56.8789H86.666C86.666 57.3672 86.7604 57.7871 86.9492 58.1387C87.138 58.4837 87.3952 58.7702 87.7207 58.998C88.0527 59.2259 88.4271 59.3952 88.8438 59.5059C89.2669 59.61 89.7064 59.6621 90.1621 59.6621C90.8197 59.6621 91.3763 59.571 91.832 59.3887C92.2878 59.2064 92.6328 58.946 92.8672 58.6074C93.1081 58.2689 93.2285 57.8685 93.2285 57.4062ZM102.77 55.4238H98.9707V53.8906H102.77C103.505 53.8906 104.101 53.7734 104.557 53.5391C105.012 53.3047 105.344 52.9792 105.553 52.5625C105.768 52.1458 105.875 51.6706 105.875 51.1367C105.875 50.6484 105.768 50.1895 105.553 49.7598C105.344 49.3301 105.012 48.985 104.557 48.7246C104.101 48.4577 103.505 48.3242 102.77 48.3242H99.4102V61H97.5254V46.7812H102.77C103.844 46.7812 104.752 46.9668 105.494 47.3379C106.236 47.709 106.799 48.2233 107.184 48.8809C107.568 49.5319 107.76 50.2773 107.76 51.1172C107.76 52.0286 107.568 52.8066 107.184 53.4512C106.799 54.0957 106.236 54.5872 105.494 54.9258C104.752 55.2578 103.844 55.4238 102.77 55.4238ZM121.09 53.4414V54.3398C121.09 55.4076 120.956 56.3646 120.689 57.2109C120.423 58.0573 120.038 58.7767 119.537 59.3691C119.036 59.9616 118.434 60.4141 117.73 60.7266C117.034 61.0391 116.253 61.1953 115.387 61.1953C114.547 61.1953 113.775 61.0391 113.072 60.7266C112.376 60.4141 111.77 59.9616 111.256 59.3691C110.748 58.7767 110.354 58.0573 110.074 57.2109C109.794 56.3646 109.654 55.4076 109.654 54.3398V53.4414C109.654 52.3737 109.791 51.4199 110.064 50.5801C110.344 49.7337 110.738 49.0143 111.246 48.4219C111.754 47.8229 112.356 47.3672 113.053 47.0547C113.756 46.7422 114.527 46.5859 115.367 46.5859C116.233 46.5859 117.014 46.7422 117.711 47.0547C118.414 47.3672 119.016 47.8229 119.518 48.4219C120.025 49.0143 120.413 49.7337 120.68 50.5801C120.953 51.4199 121.09 52.3737 121.09 53.4414ZM119.225 54.3398V53.4219C119.225 52.5755 119.137 51.8268 118.961 51.1758C118.792 50.5247 118.541 49.9779 118.209 49.5352C117.877 49.0924 117.47 48.7572 116.988 48.5293C116.513 48.3014 115.973 48.1875 115.367 48.1875C114.781 48.1875 114.251 48.3014 113.775 48.5293C113.307 48.7572 112.903 49.0924 112.564 49.5352C112.232 49.9779 111.975 50.5247 111.793 51.1758C111.611 51.8268 111.52 52.5755 111.52 53.4219V54.3398C111.52 55.1927 111.611 55.9479 111.793 56.6055C111.975 57.2565 112.236 57.8066 112.574 58.2559C112.919 58.6986 113.326 59.0339 113.795 59.2617C114.27 59.4896 114.801 59.6035 115.387 59.6035C115.999 59.6035 116.542 59.4896 117.018 59.2617C117.493 59.0339 117.893 58.6986 118.219 58.2559C118.551 57.8066 118.801 57.2565 118.971 56.6055C119.14 55.9479 119.225 55.1927 119.225 54.3398ZM123.912 46.7812H128.619C129.687 46.7812 130.589 46.944 131.324 47.2695C132.066 47.5951 132.63 48.0768 133.014 48.7148C133.404 49.3464 133.6 50.1243 133.6 51.0488C133.6 51.6999 133.466 52.2956 133.199 52.8359C132.939 53.3698 132.561 53.8255 132.066 54.2031C131.578 54.5742 130.992 54.8509 130.309 55.0332L129.781 55.2383H125.357L125.338 53.7051H128.678C129.355 53.7051 129.918 53.5879 130.367 53.3535C130.816 53.1126 131.155 52.7904 131.383 52.3867C131.611 51.9831 131.725 51.5371 131.725 51.0488C131.725 50.502 131.617 50.0234 131.402 49.6133C131.188 49.2031 130.849 48.8874 130.387 48.666C129.931 48.4382 129.342 48.3242 128.619 48.3242H125.797V61H123.912V46.7812ZM132.223 61L128.766 54.5547L130.729 54.5449L134.234 60.8828V61H132.223ZM140.709 46.7812V61H138.854V46.7812H140.709ZM145.279 46.7812V48.3242H134.293V46.7812H145.279Z" fill="white"/>
<path d="M99.4453 9.67383L90.9727 33H87.5098L97.2656 7.40625H99.498L99.4453 9.67383ZM106.547 33L98.0566 9.67383L98.0039 7.40625H100.236L110.027 33H106.547ZM106.107 23.5254V26.3027H91.7285V23.5254H106.107ZM117.094 7.40625V33H113.701V7.40625H117.094ZM137.906 7.40625H141.281V24.7207C141.281 26.6426 140.854 28.2422 139.998 29.5195C139.143 30.7969 138.006 31.7578 136.588 32.4023C135.182 33.0352 133.652 33.3516 132 33.3516C130.266 33.3516 128.695 33.0352 127.289 32.4023C125.895 31.7578 124.787 30.7969 123.967 29.5195C123.158 28.2422 122.754 26.6426 122.754 24.7207V7.40625H126.111V24.7207C126.111 26.0566 126.357 27.1582 126.85 28.0254C127.342 28.8926 128.027 29.5371 128.906 29.959C129.797 30.3809 130.828 30.5918 132 30.5918C133.184 30.5918 134.215 30.3809 135.094 29.959C135.984 29.5371 136.676 28.8926 137.168 28.0254C137.66 27.1582 137.906 26.0566 137.906 24.7207V7.40625Z" fill="white"/>
</svg>
